<?xml version="1.0" encoding="utf-8"?>
<!-- Generator: Adobe Illustrator 16.0.0, SVG Export Plug-In . SVG Version: 6.00 Build 0)  -->
<!DOCTYPE svg PUBLIC "-//W3C//DTD SVG 1.1//EN" "http://www.w3.org/Graphics/SVG/1.1/DTD/svg11.dtd">
<svg version="1.1" id="Layer_1" xmlns="http://www.w3.org/2000/svg" xmlns:xlink="http://www.w3.org/1999/xlink" x="0px" y="0px"
	 width="100px" height="100px" viewBox="0 0 100 100" enable-background="new 0 0 100 100" xml:space="preserve">
<g>
	<path fill="#01193D" d="M-164.77-4.511c1.02-1.435,1.909-2.76,2.876-4.026c0.992-1.304,2.307-1.311,3.294-0.021
		c0.824,1.078,1.563,2.224,2.35,3.332c0.161,0.228,0.37,0.423,0.577,0.654c0.963-1.367,1.81-2.629,2.718-3.845
		c1.107-1.483,2.438-1.508,3.51,0.021c1.328,1.896,2.84,3.751,3.709,5.856c0.842,2.045,2.032,2.459,3.978,2.297
		c2-0.166,2.806-0.847,2.809-2.903c0.011-6.88,0.009-13.757,0.001-20.636c-0.002-1.582-0.313-1.884-1.912-1.884
		c-12.918-0.003-25.835-0.003-38.754,0c-1.626,0-1.926,0.315-1.929,1.995c-0.005,3.318-0.002,6.639-0.002,9.958
		c0.001,3.599,0.004,7.198,0,10.798c-0.001,1.197,0.413,2.246,1.635,2.48c1.197,0.229,2.463,0.139,3.697,0.111
		c0.21-0.004,0.459-0.369,0.609-0.615c1.479-2.416,2.868-4.889,4.428-7.25c1.206-1.827,2.505-1.79,3.788-0.051
		C-166.518-7.054-165.696-5.833-164.77-4.511z M-180.391-33.016c0.112-0.014,0.271-0.025,0.429-0.053
		c13.455-2.355,26.909-4.708,40.362-7.073c1.732-0.304,2.063-1.143,0.994-2.573c-2.474-3.308-5.83-4.748-9.869-4.086
		c-8.514,1.393-17.017,2.874-25.493,4.477c-4.092,0.774-6.678,3.413-7.766,7.448C-182.054-33.687-181.538-33.004-180.391-33.016z"/>
	<path fill="#01193D" d="M-170.055,4.7c-2.547-1.396-2.956-2.649-1.595-5.253c0.677-1.293,1.485-2.516,2.35-3.964
		c0.642,1.013,1.136,1.817,1.656,2.606c1.477,2.24,4.253,2.26,5.741,0.039c0.526-0.787,1.025-1.593,1.664-2.589
		c0.587,0.921,1.067,1.681,1.555,2.437c1.565,2.43,4.367,2.412,5.937-0.035c0.472-0.733,0.94-1.467,1.554-2.422
		c1.229,1.967,2.611,3.654,3.057,5.777c0.359,1.713-0.857,2.68-2.237,3.402C-156.936,4.7-163.495,4.7-170.055,4.7z"/>
	<path fill="#01193D" d="M-160.935-56.979c1.835,0.681,3.541,1.593,4.319,3.5c0.507,1.238,0.736,2.588,1.14,4.068
		c-1.338,0.245-2.485,0.456-3.756,0.688c-0.175-0.85-0.316-1.58-0.475-2.307c-0.333-1.536-1.528-2.432-2.918-2.199
		c-1.463,0.246-2.309,1.492-2.085,3.109c0.098,0.706,0.243,1.404,0.394,2.259c-1.229,0.217-2.384,0.421-3.518,0.621
		c-1.312-3.719-0.976-8.072,4.498-9.739C-162.535-56.979-161.735-56.979-160.935-56.979z"/>
	<path fill="#01193D" d="M-128.295-21.22c-0.711,0.948-1.672,1.231-2.824,1.166c-1.074-0.062-2.156-0.036-3.232-0.006
		c-0.621,0.018-0.812-0.231-0.848-0.843c-0.173-2.883-0.189-2.881,2.635-2.881c0.479,0,0.963,0.039,1.438-0.009
		c1.15-0.114,2.111,0.195,2.833,1.132C-128.295-22.18-128.295-21.699-128.295-21.22z"/>
	<path fill="#01193D" d="M-192.135-22.66c0.718-0.934,1.675-1.22,2.824-1.137c0.912,0.066,1.832,0.014,2.748,0.014
		c0.239,0.002,0.54-0.082,0.707,0.029c1.15,0.776,0.302,1.943,0.486,2.916c0.038,0.204-0.457,0.719-0.726,0.733
		c-1.35,0.073-2.724,0.155-4.055-0.022c-0.698-0.094-1.326-0.712-1.985-1.093C-192.135-21.699-192.135-22.18-192.135-22.66z"/>
	<path fill="#01193D" d="M-164.77-4.511c-0.927-1.322-1.748-2.543-2.62-3.728c-1.283-1.739-2.582-1.776-3.788,0.051
		c-1.56,2.361-2.949,4.834-4.428,7.25c-0.15,0.246-0.399,0.611-0.609,0.615c-1.234,0.026-2.5,0.117-3.697-0.111
		c-1.222-0.234-1.636-1.283-1.635-2.48c0.004-3.6,0.001-7.199,0-10.798c0-3.319-0.003-6.64,0.002-9.958
		c0.003-1.68,0.303-1.994,1.929-1.995c12.918-0.003,25.837-0.003,38.753,0c1.602,0,1.911,0.302,1.913,1.884
		c0.007,6.879,0.009,13.756-0.001,20.636c-0.003,2.058-0.809,2.737-2.809,2.903c-1.944,0.162-3.135-0.252-3.979-2.297
		c-0.867-2.105-2.38-3.961-3.707-5.856c-1.072-1.529-2.402-1.507-3.511-0.021c-0.907,1.216-1.755,2.478-2.718,3.845
		c-0.207-0.231-0.416-0.428-0.577-0.654c-0.787-1.108-1.524-2.254-2.351-3.332c-0.986-1.288-2.301-1.281-3.293,0.021
		C-162.86-7.271-163.75-5.945-164.77-4.511z"/>
	<path fill="#01193D" d="M-180.391-33.016c-1.147,0.012-1.663-0.671-1.343-1.86c1.088-4.035,3.674-6.674,7.766-7.448
		c8.478-1.604,16.979-3.084,25.493-4.477c4.039-0.661,7.396,0.779,9.869,4.086c1.069,1.43,0.738,2.269-0.994,2.573
		c-13.453,2.365-26.907,4.717-40.362,7.073C-180.119-33.041-180.278-33.03-180.391-33.016z"/>
</g>
<g>
	<path fill="#01193D" d="M26.428,33.055h18.133v-3.627h3.625v-3.626H22.802v3.626h3.625V33.055z"/>
	<path fill="#01193D" d="M55.439,33.055h18.133v-3.627h3.626v-3.626H51.814v3.626h3.625V33.055z"/>
	<path fill="#01193D" d="M73.572,72.945H26.428v3.627h-7.375v3.626h61.894v-3.626h-7.375V72.945z"/>
	<path fill="#01193D" d="M35.494,62.066c2.999,0,5.439-2.44,5.439-5.439c0-3-2.44-5.44-5.439-5.44s-5.439,2.44-5.439,5.44
		C30.055,59.626,32.495,62.066,35.494,62.066z M33.681,54.814h3.625v3.625h-3.625V54.814z"/>
	<path fill="#01193D" d="M44.5,56.031l6.452-5.576c-1.603-0.915-2.698-2.603-2.751-4.563l-7.933,3.06
		C42.674,50.455,44.302,53.041,44.5,56.031z"/>
	<path fill="#01193D" d="M19.053,69.318h61.894V36.681H19.053V69.318z M66.318,43.934h7.254v3.627h-7.254V43.934z M66.318,51.187
		h7.254v3.628h-7.254V51.187z M66.318,58.439h7.254v3.627h-7.254V58.439z M32.243,48.188l-0.009-0.022l19.441-7.481
		c0.607-0.235,1.261-0.377,1.952-0.377c2.999,0,5.439,2.44,5.439,5.439c0,1.643-0.747,3.098-1.9,4.096L41.421,63.488l-0.03-0.033
		c-1.589,1.375-3.636,2.238-5.897,2.238c-4.999,0-9.066-4.068-9.066-9.066C26.428,52.776,28.85,49.5,32.243,48.188z"/>
	<circle fill="#01193D" cx="53.627" cy="45.747" r="1.813"/>
</g>
</svg>
