<?xml version="1.0" encoding="utf-8"?>
<!-- Generator: Adobe Illustrator 16.0.0, SVG Export Plug-In . SVG Version: 6.00 Build 0)  -->
<!DOCTYPE svg PUBLIC "-//W3C//DTD SVG 1.1//EN" "http://www.w3.org/Graphics/SVG/1.1/DTD/svg11.dtd">
<svg version="1.1" id="Layer_1" xmlns="http://www.w3.org/2000/svg" xmlns:xlink="http://www.w3.org/1999/xlink" x="0px" y="0px"
	 width="100px" height="100px" viewBox="0 0 100 100" enable-background="new 0 0 100 100" xml:space="preserve">
<g>
	<path fill-rule="evenodd" clip-rule="evenodd" fill="#01193D" d="M72.69,53.94c-0.71,0.92-1.37,1.9-2.16,2.78
		c-4.93,5.54-10.87,9.49-18.11,11.35c-3.14,0.8-6.32,1.06-9.54,0.63c-0.1-0.01-0.21-0.01-0.34-0.02c0.1,0.69,0.22,1.34,0.27,2
		c0.29,3.43-0.3,6.72-1.7,9.86c-0.17,0.39-0.39,0.76-0.61,1.12c-0.41,0.68-0.93,1.25-1.65,1.6H38.3c-0.83-0.4-1.18-1.16-1.36-1.99
		c-0.27-1.24-0.48-2.49-0.75-3.72c-1.02-4.71-3.81-7.71-8.54-8.81c-1.4-0.32-2.81-0.57-4.21-0.89c-0.79-0.18-1.47-0.56-1.82-1.36
		v-0.37c0.28-0.81,0.89-1.33,1.59-1.77c1.64-1.02,3.45-1.6,5.33-1.98c2.72-0.55,4.08-0.55,7.64-0.06c-0.06-0.55-0.13-1.09-0.17-1.63
		c-0.29-3.87,0.34-7.62,1.66-11.24c2.51-6.86,6.66-12.52,12.53-16.89c0.2-0.14,0.4-0.28,0.6-0.42c0.03-0.01,0.06-0.02,0.08-0.03
		C54.6,42.89,61.83,50.16,72.69,53.94z"/>
	<path fill-rule="evenodd" clip-rule="evenodd" fill="#01193D" d="M78.05,31c-0.06-0.34-0.17-0.48-0.55-0.47
		c-1.05,0.02-2.1,0.01-3.19,0.01c-0.02-0.28-0.04-0.44-0.04-0.61c-0.03-0.91-0.05-1.83-0.06-2.74c0-0.32-0.09-0.47-0.42-0.51
		c-0.83-0.09-1.66-0.22-2.49-0.34h-2.93c-0.53,0.06-1.06,0.12-1.59,0.17c-4.24,0.42-8.29,1.56-12.13,3.41
		c-0.13,0.07-0.26,0.14-0.38,0.21c2.8,10.91,12.37,18.58,20.34,20.35c0.02-0.02,0.05-0.04,0.06-0.07c0.07-0.14,0.14-0.27,0.21-0.41
		c2.04-4.31,3.19-8.85,3.46-13.61C78.44,34.59,78.37,32.79,78.05,31z M66.27,36.33c-1.16,0-2.1-0.94-2.11-2.09
		c0-1.15,0.95-2.11,2.09-2.12c1.15,0,2.11,0.95,2.11,2.1C68.37,35.38,67.42,36.33,66.27,36.33z"/>
</g>
</svg>
