<?xml version="1.0" encoding="utf-8"?>
<!-- Generator: Adobe Illustrator 16.0.0, SVG Export Plug-In . SVG Version: 6.00 Build 0)  -->
<!DOCTYPE svg PUBLIC "-//W3C//DTD SVG 1.1//EN" "http://www.w3.org/Graphics/SVG/1.1/DTD/svg11.dtd">
<svg version="1.1" id="Layer_1" xmlns="http://www.w3.org/2000/svg" xmlns:xlink="http://www.w3.org/1999/xlink" x="0px" y="0px"
	 width="100px" height="100px" viewBox="0 0 100 100" enable-background="new 0 0 100 100" xml:space="preserve">
<g>
	<g>
		<path fill="#01193D" d="M79.164,75.751H22.835c-0.968,0-1.753-0.784-1.753-1.753s0.785-1.753,1.753-1.753h56.329
			c0.968,0,1.753,0.784,1.753,1.752C80.917,74.967,80.132,75.751,79.164,75.751z"/>
	</g>
	<g>
		<g>
			<path fill="#01193D" d="M79.164,72.245h-1.87V69.09c0-0.969-0.784-1.753-1.752-1.753H58.596v-2.921
				c0-4.189-3.407-7.598-7.596-7.598c-2.123,0-4.043,0.877-5.424,2.286L27.387,47.736c-0.821-0.513-1.902-0.264-2.416,0.557
				c-0.512,0.822-0.263,1.904,0.558,2.416l18.235,11.396c-0.233,0.729-0.36,1.506-0.36,2.311v2.921H26.459
				c-0.969,0-1.753,0.784-1.753,1.754v3.154h-1.87c-0.968,0-1.753,0.784-1.753,1.753s0.785,1.753,1.753,1.753h56.329
				c0.968,0,1.753-0.784,1.753-1.754C80.917,73.029,80.132,72.245,79.164,72.245z M51,60.324c0.969,0,1.753,0.786,1.753,1.754
				c0,0.969-0.784,1.752-1.753,1.752c-0.968,0-1.753-0.783-1.753-1.752C49.247,61.11,50.032,60.324,51,60.324z"/>
		</g>
		<g>
			<path fill="#01193D" d="M62.503,24.037c0.266-0.38,0.37-0.852,0.289-1.309c-0.08-0.458-0.34-0.866-0.72-1.132l-7.659-5.362
				c-0.793-0.556-1.886-0.363-2.441,0.43L50.966,18.1l10.531,7.373L62.503,24.037z"/>
		</g>
		<g>
			<path fill="#01193D" d="M33.633,45.91l7.659,5.363c0.296,0.207,0.648,0.317,1.005,0.317c0.101,0,0.203-0.01,0.304-0.027
				c0.458-0.081,0.865-0.341,1.132-0.721l1.005-1.436l-10.53-7.374l-1.005,1.435c-0.266,0.382-0.372,0.853-0.291,1.311
				S33.253,45.643,33.633,45.91z"/>
		</g>
		<g>
			<path fill="#01193D" d="M35.741,38.825l11.487,8.044c0.306,0.214,0.657,0.316,1.004,0.316c0.553,0,1.097-0.261,1.438-0.747
				l1.204-1.718c-2.983-1.026-5.133-3.858-5.133-7.184c0-4.188,3.408-7.596,7.597-7.596c2.382,0,4.512,1.104,5.905,2.826
				l1.152-1.644c0.554-0.794,0.361-1.887-0.431-2.442l-11.488-8.044c-0.792-0.555-1.886-0.363-2.442,0.431L35.31,36.384
				c-0.267,0.38-0.371,0.852-0.29,1.309C35.101,38.151,35.36,38.558,35.741,38.825z"/>
		</g>
		<g>
			<circle fill="#01193D" cx="53.338" cy="37.536" r="4.09"/>
		</g>
		<g>
			<path fill="#01193D" d="M61.006,59.606c2.481-2.527,4.018-5.984,4.018-9.799c0-4.004-1.686-7.62-4.386-10.177
				c-0.684,2.38-2.502,4.283-4.829,5.086c1.355,1.278,2.204,3.085,2.204,5.09c0,1.839-0.714,3.514-1.878,4.768
				C58.25,55.683,59.966,57.453,61.006,59.606L61.006,59.606z"/>
		</g>
	</g>
</g>
</svg>
