<?xml version="1.0" encoding="utf-8"?>
<!-- Generator: Adobe Illustrator 16.0.0, SVG Export Plug-In . SVG Version: 6.00 Build 0)  -->
<!DOCTYPE svg PUBLIC "-//W3C//DTD SVG 1.1//EN" "http://www.w3.org/Graphics/SVG/1.1/DTD/svg11.dtd">
<svg version="1.1" id="Layer_1" xmlns="http://www.w3.org/2000/svg" xmlns:xlink="http://www.w3.org/1999/xlink" x="0px" y="0px"
	 width="100px" height="100px" viewBox="0 0 100 100" enable-background="new 0 0 100 100" xml:space="preserve">
<g>
	<path fill-rule="evenodd" clip-rule="evenodd" fill="#01193D" d="M50.065,82.835c-0.08,0-0.16,0-0.24,0
		c-0.313-0.159-0.612-0.352-0.938-0.475c-6.791-2.581-13.58-5.163-20.379-7.725c-3.206-1.208-6.428-2.375-9.643-3.561
		c0-12.641,0-25.28,0-37.92c0.305,0.063,0.623,0.088,0.91,0.197c9.816,3.71,19.625,7.439,29.45,11.126
		c0.832,0.312,0.9,0.815,0.899,1.544c-0.015,9.554-0.007,19.107-0.013,28.66C50.111,77.4,50.082,80.118,50.065,82.835z
		 M27.33,63.486c-0.438,4.329-0.438,4.329,3.355,5.77c0.521,0.197,1.037,0.404,1.559,0.599c1.059,0.392,2.118,0.778,3.311,1.216
		c0-1.426,0.024-2.656-0.021-3.885c-0.009-0.252-0.223-0.634-0.437-0.719C32.554,65.461,29.992,64.499,27.33,63.486z"/>
	<path fill-rule="evenodd" clip-rule="evenodd" fill="#01193D" d="M54.625,82.835c-0.08,0-0.16,0-0.24,0
		c-0.012-0.119-0.034-0.238-0.034-0.357c-0.006-12.271-0.004-24.541-0.032-36.812c-0.002-0.72,0.331-0.961,0.905-1.173
		c2.395-0.886,4.778-1.801,7.169-2.7c0.73-0.274,1.468-0.528,2.33-0.837c0,3.564,0,6.951,0,10.511
		c2.729-1.032,5.338-1.993,7.915-3.036c0.254-0.103,0.428-0.704,0.432-1.076c0.035-2.877,0.049-5.756,0.001-8.633
		c-0.013-0.772,0.245-1.104,0.962-1.366c3.222-1.178,6.417-2.431,9.629-3.638c0.624-0.234,1.281-0.378,1.924-0.563
		c0,12.64,0,25.279,0,37.92c-0.381,0.104-0.772,0.18-1.14,0.319c-7.875,2.987-15.749,5.976-23.616,8.979
		C58.751,81.167,56.692,82.014,54.625,82.835z"/>
	<path fill-rule="evenodd" clip-rule="evenodd" fill="#01193D" d="M52.465,16.115c4.313,1.668,8.619,3.352,12.939,5
		c6.227,2.375,12.464,4.724,18.695,7.087c0.396,0.15,0.784,0.325,1.327,0.551c-0.455,0.209-0.766,0.374-1.091,0.498
		c-3.394,1.292-6.796,2.562-10.181,3.878c-0.76,0.295-1.4,0.295-2.158-0.058c-3.508-1.639-7.034-3.237-10.583-4.785
		c-0.47-0.206-1.168-0.215-1.645-0.024c-2.433,0.975-4.827,2.046-7.535,3.212c4.249,1.78,8.223,3.445,12.447,5.215
		c-1.498,0.571-2.756,1.053-4.015,1.53c-2.537,0.962-5.066,1.948-7.621,2.86c-0.475,0.17-1.116,0.202-1.58,0.027
		c-10.532-3.962-21.052-7.961-31.571-11.957c-0.251-0.096-0.486-0.23-0.896-0.427c4.219-1.602,8.271-3.142,12.324-4.68
		c6.528-2.479,13.059-4.955,19.586-7.438c0.368-0.14,0.719-0.327,1.077-0.491C52.145,16.115,52.305,16.115,52.465,16.115z"/>
</g>
</svg>
